<?xml version="1.0" encoding="utf-8"?>
<!-- Generator: Adobe Illustrator 25.4.1, SVG Export Plug-In . SVG Version: 6.00 Build 0)  -->
<svg version="1.0" id="katman_1" xmlns="http://www.w3.org/2000/svg" xmlns:xlink="http://www.w3.org/1999/xlink" x="0px" y="0px"
	 viewBox="0 0 800 600" style="enable-background:new 0 0 800 600;" xml:space="preserve">
<style type="text/css">
	.st0{fill:#0F69A0;}
	.st1{fill:#1D2D5C;}
	.st2{fill:#00A4E4;}
	.st3{fill:#36AC91;}
	.st4{fill:#6CB33F;}
</style>
<g id="full-rgb">
	<path id="fullLogo" class="st0" d="M91.8,310.1c-5.5-5.5-5.5-14.4,0-19.9c5.5-5.5,14.4-5.5,19.9,0c3.7,3.7,5,9.1,3.5,14
		c-0.1,0.3,0,0.6,0.2,0.9l7,7c0.3,0.3,0.9,0.4,1.2,0c0.1-0.1,0.1-0.1,0.2-0.2c6.5-12.2,1.8-27.3-10.4-33.8s-27.3-1.8-33.8,10.4
		c-6.5,12.2-1.8,27.3,10.4,33.8c7.3,3.9,16.1,3.9,23.4,0c0.4-0.2,0.6-0.8,0.4-1.2c0-0.1-0.1-0.2-0.2-0.2l-7-7
		c-0.2-0.2-0.6-0.3-0.9-0.2C100.8,315.2,95.4,313.8,91.8,310.1z"/>
	<path id="fullLogo-2" class="st1" d="M91.8,343.6c5.5-5.5,14.4-5.5,19.9,0c5.5,5.5,5.5,14.4,0,19.9c-3.7,3.7-9.1,5-14,3.5
		c-0.3-0.1-0.6,0-0.9,0.2l-7,7c-0.4,0.3-0.4,0.9,0,1.3c0.1,0.1,0.1,0.1,0.2,0.2c12.2,6.5,27.4,1.9,33.9-10.4
		c6.5-12.2,1.9-27.4-10.4-33.9s-27.4-1.9-33.9,10.4c-3.9,7.3-3.9,16.1,0,23.5c0.2,0.4,0.8,0.6,1.2,0.4c0.1,0,0.2-0.1,0.2-0.2l7-7
		c0.2-0.2,0.3-0.6,0.2-0.9C86.8,352.7,88.1,347.3,91.8,343.6z"/>
	<path id="fullLogo-3" class="st0" d="M155.6,367.7c-7.8,0-14.1-6.3-14.1-14.1s6.3-14.1,14.1-14.1c5.2,0,10,2.9,12.5,7.4
		c0.1,0.3,0.4,0.5,0.8,0.5h9.8c0.5,0,0.9-0.4,0.9-0.9c0-0.1,0-0.2,0-0.2c-4.1-13.2-18-20.6-31.2-16.6c-13.2,4.1-20.6,18-16.6,31.2
		c4.1,13.2,18,20.6,31.2,16.6c7.9-2.4,14.1-8.6,16.6-16.6c0.1-0.5-0.1-1-0.6-1.1c-0.1,0-0.2,0-0.2,0h-9.8c-0.3,0-0.6,0.2-0.8,0.5
		C165.6,364.9,160.8,367.7,155.6,367.7z"/>
	<path id="fullLogo-4" class="st2" d="M141.5,300.2c0-7.8,6.3-14.1,14.1-14.1c7.8,0,14.1,6.3,14.1,14.1c0,5.2-2.9,10-7.4,12.4
		c-0.3,0.1-0.5,0.4-0.5,0.8v9.8c0,0.5,0.4,0.9,0.9,0.9c0.1,0,0.2,0,0.3,0c13.2-4,20.6-18,16.6-31.3c-4-13.2-18-20.6-31.3-16.6
		s-20.6,18-16.6,31.3c2.4,7.9,8.6,14.2,16.6,16.6c0.5,0.1,0.9-0.1,1.1-0.6c0-0.1,0-0.2,0-0.3v-9.8c0-0.3-0.2-0.6-0.5-0.8
		C144.3,310.1,141.5,305.3,141.5,300.2z"/>
	<path id="fullLogo-5" class="st2" d="M115.9,246.7c0,7.8-6.3,14.1-14.1,14.1c-7.8,0-14.1-6.3-14.1-14.1c0-5.2,2.9-10,7.4-12.5
		c0.3-0.1,0.5-0.4,0.5-0.7v-9.8c0-0.5-0.4-0.9-0.9-0.9c-0.1,0-0.2,0-0.3,0c-13.2,4-20.6,18-16.6,31.2c4,13.2,18,20.6,31.2,16.6
		s20.6-18,16.6-31.2c-2.4-7.9-8.6-14.1-16.6-16.6c-0.5-0.1-1,0.1-1.1,0.6c0,0.1,0,0.2,0,0.2v9.8c0,0.3,0.2,0.6,0.5,0.8
		C113,236.7,115.9,241.5,115.9,246.7z"/>
	<path id="fullLogo-6" class="st2" d="M219.4,343.6c5.5,5.5,5.5,14.5,0,20c-5.5,5.5-14.5,5.5-20,0c-3.7-3.7-5-9.1-3.5-14.1
		c0.1-0.3,0-0.6-0.2-0.9l-7-7c-0.3-0.3-0.9-0.3-1.3,0c-0.1,0.1-0.1,0.1-0.1,0.2c-6.5,12.2-1.9,27.3,10.3,33.8s27.3,1.9,33.8-10.3
		c6.5-12.2,1.9-27.3-10.3-33.8c-7.3-3.9-16.1-3.9-23.5,0c-0.4,0.2-0.6,0.8-0.4,1.2c0,0.1,0.1,0.2,0.2,0.2l7,7
		c0.2,0.2,0.6,0.3,0.9,0.2C210.3,338.6,215.7,340,219.4,343.6z"/>
	<path id="fullLogo-7" class="st3" d="M219.4,310.1c-5.5,5.5-14.4,5.6-20,0.1s-5.6-14.4-0.1-20c3.7-3.7,9.1-5.1,14.1-3.6
		c0.3,0.1,0.6,0,0.9-0.2l7-7c0.3-0.4,0.3-0.9,0-1.3c-0.1-0.1-0.1-0.1-0.2-0.1c-12.2-6.5-27.3-1.8-33.8,10.4
		c-6.5,12.2-1.8,27.3,10.4,33.8s27.3,1.8,33.8-10.4c3.9-7.3,3.9-16.1,0-23.4c-0.2-0.4-0.8-0.6-1.2-0.4c-0.1,0-0.1,0.1-0.2,0.2l-7,7
		c-0.2,0.2-0.3,0.6-0.2,0.9C224.4,301.1,223,306.5,219.4,310.1z"/>
	<path id="fullLogo-8" class="st4" d="M209.7,260.8c-7.8,0-14.1-6.3-14.1-14.1c0-7.8,6.3-14.1,14.1-14.1c5.2,0,10,2.9,12.4,7.4
		c0.2,0.3,0.4,0.5,0.8,0.5h9.8c0.5,0,0.9-0.4,0.9-0.9c0-0.1,0-0.2,0-0.2c-4-13.2-18-20.6-31.3-16.6c-13.2,4-20.6,18-16.6,31.3
		c4,13.2,18,20.6,31.3,16.6c7.9-2.4,14.2-8.6,16.6-16.6c0.1-0.5-0.1-1-0.6-1.1c-0.1,0-0.2,0-0.2,0h-9.9c-0.3,0-0.6,0.2-0.8,0.5
		C219.6,257.9,214.8,260.8,209.7,260.8z"/>
	<path id="fullLogo-9" class="st3" d="M145.6,236.7c5.5-5.5,14.4-5.5,20,0c5.5,5.5,5.5,14.4,0,20c-3.7,3.7-9.1,5.1-14.1,3.6
		c-0.3-0.1-0.6,0-0.9,0.2l-7,7c-0.3,0.3-0.4,0.9,0,1.2c0.1,0.1,0.1,0.1,0.2,0.2c12.2,6.5,27.3,1.8,33.8-10.4
		c6.5-12.2,1.8-27.3-10.4-33.8c-12.2-6.5-27.3-1.8-33.8,10.4c-3.9,7.3-3.9,16.1,0,23.4c0.2,0.4,0.8,0.6,1.2,0.3
		c0.1,0,0.1-0.1,0.2-0.1l7-7c0.2-0.2,0.3-0.6,0.2-0.9C140.6,245.8,141.9,240.4,145.6,236.7z"/>
	<path id="fullLogo-10" class="st1" d="M286.1,251.1c0-1.5,1.3-2.8,2.8-2.8h13.7c1.5,0.1,2.7,1.3,2.8,2.8v97.7
		c0,1.5-1.3,2.8-2.8,2.8h-13.7c-1.5-0.1-2.7-1.3-2.8-2.8L286.1,251.1z"/>
	<path id="fullLogo-11" class="st1" d="M328.5,337.2l5.3-9.1c1-1.6,3.1-2.2,4.7-1.2c0.1,0.1,0.2,0.1,0.3,0.2
		c0.7,0.4,12.7,9.1,22.2,9.1c7.7,0,13.4-5,13.4-11.4c0-7.5-6.4-12.7-18.8-17.7c-13.7-5.6-27.7-14.5-27.7-31.9
		c0-13.1,9.7-28.4,33.2-28.4c10.6,0.2,20.9,3.7,29.5,9.9c1.5,1.1,1.9,3.3,0.9,4.9L386,270c-1.2,1.8-3.4,2.9-5.2,1.8
		c-1.2-0.7-12.4-8.1-20.5-8.1c-8.4,0-13,5.6-13,10.3c0,6.9,5.5,11.7,17.5,16.6c14.3,5.8,30.9,14.3,30.9,33.4
		c0,15.2-13.1,29.2-34,29.2c-18.6,0-29.5-8.7-32.5-11.5C327.9,340.3,327.1,339.6,328.5,337.2z"/>
	<path id="fullLogo-12" class="st1" d="M402.5,347.8l45.9-99.4c0.4-1,1.4-1.6,2.5-1.6h1.5c1.1-0.1,2.1,0.6,2.5,1.6l45.5,99.4
		c0.7,1.3,0.2,2.9-1.1,3.5c-0.4,0.2-0.9,0.3-1.4,0.3h-12.9c-1.9,0.1-3.7-1.1-4.3-3l-7.2-15.9h-44.1l-7.2,15.9c-0.6,1.8-2.4,3-4.3,3
		H405c-1.4,0.1-2.7-0.9-2.8-2.4C402.2,348.8,402.3,348.3,402.5,347.8z M466.3,316.4l-14.8-32.5h-0.4l-14.5,32.5H466.3z"/>
	<path id="fullLogo-13" class="st1" d="M559.5,246.8c13.3-0.3,26.1,4.6,35.7,13.7c1.2,0.9,1.4,2.7,0.4,3.8c-0.1,0.1-0.2,0.2-0.3,0.3
		l-9,9.3c-0.8,1-2.3,1.2-3.3,0.4c-0.1-0.1-0.3-0.2-0.4-0.4c-6.3-5.5-14.4-8.6-22.7-8.7c-18.9,0-32.9,15.9-32.9,34.4
		c0,18.5,14.2,34.2,33.1,34.2c8.3-0.1,16.3-3.1,22.6-8.4c1-1,2.6-1,3.7,0l9.2,9.5c1.1,1.1,1,2.9-0.1,4c0,0,0,0,0,0
		c-9.6,9.3-22.5,14.5-35.9,14.3c-29.4,0.5-53.6-22.9-54.1-52.2c-0.5-29.4,22.9-53.6,52.2-54.1C558.3,246.9,558.9,246.9,559.5,246.8
		L559.5,246.8z"/>
	<path id="fullLogo-14" class="st1" d="M603.5,347.8l45.9-99.4c0.4-1,1.4-1.6,2.5-1.6h1.5c1.1-0.1,2.1,0.6,2.5,1.6l45.5,99.4
		c0.7,1.3,0.2,2.8-1,3.5c-0.4,0.2-1,0.4-1.5,0.3h-12.9c-1.9,0.1-3.6-1.1-4.2-3l-7.2-15.9h-44.2l-7.2,15.9c-0.6,1.8-2.4,3-4.3,3H606
		c-1.4,0.1-2.7-0.9-2.8-2.4C603.2,348.8,603.3,348.3,603.5,347.8z M667.3,316.4l-14.8-32.5h-0.4l-14.5,32.5H667.3z"/>
	<path id="fullLogo-15" class="st1" d="M716.5,335.3c4.8,0,8.7,3.9,8.7,8.7c0,4.8-3.9,8.7-8.7,8.7c-4.8,0-8.7-3.9-8.7-8.7
		C707.8,339.2,711.7,335.3,716.5,335.3z M716.5,351.3c4,0,7.3-3.3,7.3-7.3s-3.3-7.3-7.3-7.3c-4,0-7.3,3.3-7.3,7.3l0,0
		C709.2,348.1,712.4,351.3,716.5,351.3C716.5,351.3,716.5,351.3,716.5,351.3z M713.5,340c0-0.3,0.2-0.5,0.5-0.5l0,0h3.4
		c1.5-0.1,2.8,1,3,2.5c0,0.1,0,0.2,0,0.2c0.1,1.3-0.8,2.4-2,2.7c0.5,0.9,1,1.9,1.5,2.9c0.1,0.2,0,0.5-0.2,0.6c-0.1,0-0.1,0-0.2,0
		h-0.8c-0.2,0-0.4-0.2-0.4-0.3l-1.4-3H715v2.9c0,0.3-0.2,0.5-0.4,0.5c0,0,0,0,0,0h-0.6c-0.3,0-0.5-0.2-0.5-0.5c0,0,0,0,0,0
		L713.5,340z M717.4,343.7c0.8,0.1,1.4-0.5,1.5-1.3c0,0,0-0.1,0-0.1c0-0.7-0.5-1.4-1.3-1.4c-0.1,0-0.1,0-0.2,0H715v2.8H717.4z"/>
</g>
</svg>
