<svg xmlns="http://www.w3.org/2000/svg" width="137.839" height="50.064"><g data-name="Group 4931"><path data-name="Path 8036" d="M34.609 37.308a36.921 36.921 0 0 0-27.462-.006.931.931 0 0 0 .358 1.776c1.614-.083 3.2-.181 4.77-.247a168.452 168.452 0 0 1 17.178.005c1.584.067 3.174.166 4.8.248a.932.932 0 0 0 .358-1.776" fill="#00a5e2"/><path data-name="Path 8037" d="M28.094 41.417a23.15 23.15 0 0 0-14.431 0 .93.93 0 0 0 .3 1.794c2.3-.087 4.567-.194 6.907-.174 2.349-.016 4.621.093 6.933.179a.93.93 0 0 0 .3-1.795" fill="#00a5e2"/><path data-name="Path 8038" d="M41.732 34.632v-.124q0-.036-.008-.073c0-.04-.009-.08-.016-.119l-.015-.077c-.005-.025-.016-.074-.026-.11l-.026-.085-.033-.1c-.012-.035-.025-.061-.037-.091s-.025-.059-.039-.087l-.048-.09c-.016-.03-.03-.055-.046-.081l-.055-.084a1.174 1.174 0 0 0-.116-.154c-.02-.024-.046-.055-.071-.082l-.059-.061-.087-.082c-.03-.027-.041-.034-.061-.051s-.065-.052-.1-.076a2.01 2.01 0 0 0-.313-.186 49.317 49.317 0 0 0-10.217-3.558 42.547 42.547 0 0 0-18.985 0 49.318 49.318 0 0 1-8.192 7.064 2.129 2.129 0 0 1-.272.159c12.082-5.71 23.83-5.71 35.911 0h.006a1.982 1.982 0 0 0 .249.1l.079.024a2.1 2.1 0 0 0 .218.049l.042.008a1.977 1.977 0 0 0 .26.019h.075c.049 0 .1 0 .147-.009l.077-.008c.055-.007.109-.018.162-.03l.056-.011a2.141 2.141 0 0 0 .208-.063l.055-.023c.05-.02.1-.041.148-.065l.07-.037c.044-.024.088-.05.13-.077l.063-.041q.075-.052.145-.112c.011-.009.022-.016.032-.026a2.086 2.086 0 0 0 .17-.167l.012-.015a2.022 2.022 0 0 0 .134-.17l.041-.06.064-.1c.02-.031.032-.058.047-.087a1.923 1.923 0 0 0 .148-.38l.026-.1c.008-.034.012-.059.017-.089l.018-.111c.005-.037 0-.052.007-.077s.006-.081.007-.121v-.071" fill="#00a5e2"/><path data-name="Path 8039" d="M38.196 23.695a168.332 168.332 0 0 1-8.584-14.88c-.734-1.405-1.444-2.831-2.184-4.279a.932.932 0 0 0-1.717.578A36.918 36.918 0 0 0 39.436 28.9a.931.931 0 0 0 1.359-1.2c-.88-1.356-1.755-2.676-2.6-4.007" fill="#00a5e2"/><path data-name="Path 8040" d="M39.739 21.202a.93.93 0 0 0 1.406-1.153c-1.227-1.951-2.451-3.858-3.6-5.895-1.188-2.027-2.23-4.049-3.311-6.094a.93.93 0 0 0-1.7.642 23.148 23.148 0 0 0 7.212 12.5" fill="#00a5e2"/><path data-name="Path 8041" d="M22.888 1.861v-.033c0-.041-.01-.081-.016-.122s-.008-.054-.014-.081l-.026-.111c-.009-.037-.015-.059-.025-.089l-.031-.092a1.58 1.58 0 0 0-.071-.17c-.011-.023-.036-.076-.056-.112l-.035-.05a1.76 1.76 0 0 0-.073-.117L22.51.84a1.545 1.545 0 0 0-.087-.113l-.034-.039a.859.859 0 0 0-.1-.1l-.034-.043-.1-.089-.059-.041c-.033-.025-.066-.05-.1-.073l-.065-.041c-.033-.021-.067-.041-.1-.059s-.05-.024-.076-.041-.069-.033-.1-.048-.052-.021-.079-.03L21.465.09l-.081-.023A2.351 2.351 0 0 0 21.27.04l-.086-.014a2.123 2.123 0 0 0-.115-.015l-.097-.01h-.22l-.082.005c-.042 0-.084.01-.125.017l-.079.014c-.037.007-.074.017-.111.026s-.06.018-.09.028l-.089.031c-.029.011-.07.026-.1.04l-.067.031a2.018 2.018 0 0 0-.114.057l-.051.03c-.04.024-.08.048-.118.074l-.042.03a1.906 1.906 0 0 0-.114.087l-.042.03a.727.727 0 0 0-.1.1l-.041.044c-.03.032-.059.064-.087.1l-.045.056c-.025.032-.049.065-.072.1l-.042.067c-.014.023-.04.065-.058.1l-.037.075-.048.1c-.015.032-.02.052-.03.077s-.027.073-.038.111l-.021.076c-.007.025-.021.08-.029.12s-.009.052-.013.077a2.467 2.467 0 0 0-.017.124 2.048 2.048 0 0 0 0 .364 49.318 49.318 0 0 0 2.021 10.626 42.549 42.549 0 0 0 9.484 16.443 49.318 49.318 0 0 1 10.214 3.562 2.009 2.009 0 0 1 .313.186l-.026-.02C29.855 25.375 23.982 15.194 22.888 1.861" fill="#00a5e2"/><path data-name="Path 8042" d="M18.845 2.193a2.048 2.048 0 0 1 0-.364v.033C17.751 15.194 11.873 25.376.873 32.989l-.026.02c-.034.024-.066.049-.1.075s-.042.034-.062.052a4.216 4.216 0 0 0-.147.143l-.068.078c-.023.026-.042.051-.062.077s-.036.05-.053.075-.041.059-.059.089-.027.05-.041.078-.036.065-.052.1l-.034.077-.042.1c-.013.033-.019.057-.029.085s-.021.065-.03.1-.015.064-.022.1-.014.061-.019.092l-.014.1-.009.087c-.002.029 0 .072 0 .108S0 34.676 0 34.708s0 .07.006.106 0 .062.008.093.01.065.015.1.012.068.019.1.015.058.023.087.02.073.033.109l.03.08c.011.027.029.074.045.11s.021.043.031.064a2 2 0 0 0 .107.19c.011.017.021.035.033.052a1.985 1.985 0 0 0 .147.189l.061.066a1.945 1.945 0 0 0 .154.148c.022.019.047.036.07.054a1.287 1.287 0 0 0 .228.154c.051.029.1.057.156.082l.085.038c.054.022.109.042.165.059.03.009.059.019.089.027.059.015.118.027.179.038.027 0 .054.011.082.015a1.993 1.993 0 0 0 .262.018 2.053 2.053 0 0 0 .265-.019c.027 0 .055-.009.082-.014a1.9 1.9 0 0 0 .191-.044c.027-.007.055-.014.082-.023a1.975 1.975 0 0 0 .26-.1 2.08 2.08 0 0 0 .273-.159 49.3 49.3 0 0 0 8.192-7.064 42.55 42.55 0 0 0 9.493-16.441 49.292 49.292 0 0 1-2.021-10.63" fill="#00a5e2"/><path data-name="Path 8043" d="M.92 27.719a.932.932 0 0 0 1.359 1.2 36.918 36.918 0 0 0 13.736-23.78.931.931 0 0 0-1.712-.579c-.735 1.44-1.441 2.858-2.171 4.255a168.316 168.316 0 0 1-8.598 14.873c-.85 1.338-1.73 2.666-2.614 4.031" fill="#00a5e2"/><path data-name="Path 8044" d="M1.977 21.22a23.151 23.151 0 0 0 7.219-12.5.93.93 0 0 0-1.7-.642c-1.076 2.038-2.115 4.052-3.3 6.069-1.161 2.042-2.391 3.955-3.622 5.915a.93.93 0 0 0 1.407 1.153" fill="#00a5e2"/><path data-name="Path 8045" d="M56.108 5.638h2.264v14.535h.09a6.329 6.329 0 0 1 3-2.235 11.659 11.659 0 0 1 3.951-.655 8.912 8.912 0 0 1 4.2.97 9.732 9.732 0 0 1 3.138 2.6 12.13 12.13 0 0 1 1.987 3.725 13.837 13.837 0 0 1 .7 4.4 13.061 13.061 0 0 1-.767 4.56 10.473 10.473 0 0 1-2.19 3.589 9.857 9.857 0 0 1-3.409 2.349 11.314 11.314 0 0 1-4.425.835 7.584 7.584 0 0 1-2.213-.316 9.5 9.5 0 0 1-1.918-.813 8.011 8.011 0 0 1-1.535-1.106 7.506 7.506 0 0 1-1.062-1.2h-.09a2.89 2.89 0 0 1-2.89 2.889h-3.341V10.144a4.509 4.509 0 0 1 4.51-4.506M57.83 28.8a5.677 5.677 0 0 0 1.422 4.019 5.968 5.968 0 0 0 7.992 0 5.677 5.677 0 0 0 1.422-4.019 5.681 5.681 0 0 0-1.422-4.018 5.969 5.969 0 0 0-7.992 0A5.681 5.681 0 0 0 57.83 28.8" fill="#002589"/><path data-name="Path 8046" d="M77.79 17.826h3.341a2.89 2.89 0 0 1 2.89 2.89h.09a7.483 7.483 0 0 1 1.062-1.2 7.992 7.992 0 0 1 1.535-1.106 9.5 9.5 0 0 1 1.918-.813 7.566 7.566 0 0 1 2.212-.317 11.315 11.315 0 0 1 4.425.835 9.891 9.891 0 0 1 3.409 2.348 10.486 10.486 0 0 1 2.189 3.59 13.056 13.056 0 0 1 .768 4.56 13.836 13.836 0 0 1-.7 4.4 12.117 12.117 0 0 1-1.987 3.725 9.712 9.712 0 0 1-3.138 2.6 8.908 8.908 0 0 1-4.2.971 11.648 11.648 0 0 1-3.951-.655 6.312 6.312 0 0 1-3-2.235h-.09v12.645h-3.125a3.648 3.648 0 0 1-3.648-3.648Zm6.23 10.971a5.677 5.677 0 0 0 1.422 4.019 5.968 5.968 0 0 0 7.992 0 6.39 6.39 0 0 0 0-8.037 5.969 5.969 0 0 0-7.992 0 5.681 5.681 0 0 0-1.422 4.018" fill="#002589"/><path data-name="Path 8047" d="M103.34 17.831h3.522a2.98 2.98 0 0 1 2.98 2.98h.09a5.475 5.475 0 0 1 .9-1.265 6.522 6.522 0 0 1 1.4-1.129 7.986 7.986 0 0 1 1.851-.812 7.733 7.733 0 0 1 2.258-.317 8.581 8.581 0 0 1 4.086.948 6.005 6.005 0 0 1 2.686 2.98 7.33 7.33 0 0 1 2.845-3.025 8.551 8.551 0 0 1 4.109-.9 8.381 8.381 0 0 1 3.725.745 6.105 6.105 0 0 1 2.393 2.032 8.59 8.59 0 0 1 1.265 3.025 17.289 17.289 0 0 1 .383 3.725v8.449a4.509 4.509 0 0 1-4.509 4.509h-2.264V26.992a5.105 5.105 0 0 0-.655-2.642 2.475 2.475 0 0 0-2.325-1.106 4.481 4.481 0 0 0-1.964.384 3.239 3.239 0 0 0-1.264 1.061 4.412 4.412 0 0 0-.677 1.58 8.588 8.588 0 0 0-.2 1.9v11.6h-6.773v-11.6q0-.587-.045-1.445a5.789 5.789 0 0 0-.316-1.626 3.109 3.109 0 0 0-.88-1.309 2.608 2.608 0 0 0-1.784-.542 4.175 4.175 0 0 0-2.122.474 3.225 3.225 0 0 0-1.241 1.264 5.162 5.162 0 0 0-.565 1.784 15.364 15.364 0 0 0-.136 2.076v10.924h-6.773Z" fill="#002589"/></g></svg>