<?xml version="1.0" encoding="utf-8"?>
<!-- Generator: Adobe Illustrator 27.2.0, SVG Export Plug-In . SVG Version: 6.00 Build 0)  -->
<svg version="1.1" id="Layer_1" xmlns="http://www.w3.org/2000/svg" xmlns:xlink="http://www.w3.org/1999/xlink" x="0px" y="0px"
	 viewBox="0 0 432 191.3" style="enable-background:new 0 0 432 191.3;" xml:space="preserve">
<style type="text/css">
	.st0{fill:#86B040;}
	.st1{fill:#474748;}
</style>
<g>
	<path class="st0" d="M45.2,170.7c-0.1,0.1-0.1,0.2-0.2,0.3c-0.1,0.1-0.2,0.1-0.3,0.1c-0.1,0-0.3-0.1-0.5-0.2
		c-0.2-0.1-0.4-0.3-0.7-0.4c-0.3-0.2-0.6-0.3-1-0.4s-0.8-0.2-1.3-0.2c-0.5,0-0.9,0.1-1.3,0.2s-0.7,0.3-0.9,0.5
		c-0.2,0.2-0.4,0.5-0.6,0.8c-0.1,0.3-0.2,0.6-0.2,1c0,0.5,0.1,0.8,0.3,1.1c0.2,0.3,0.5,0.5,0.9,0.8c0.4,0.2,0.8,0.4,1.3,0.5
		c0.5,0.2,1,0.3,1.4,0.5c0.5,0.2,1,0.4,1.4,0.6c0.5,0.2,0.9,0.5,1.3,0.8c0.4,0.3,0.7,0.7,0.9,1.2c0.2,0.5,0.3,1.1,0.3,1.7
		c0,0.7-0.1,1.4-0.4,2c-0.3,0.6-0.6,1.2-1.1,1.7c-0.5,0.5-1.1,0.8-1.8,1.1c-0.7,0.3-1.5,0.4-2.4,0.4c-0.5,0-1-0.1-1.5-0.2
		c-0.5-0.1-1-0.2-1.4-0.4c-0.4-0.2-0.9-0.4-1.2-0.7c-0.4-0.3-0.7-0.6-1-0.9l0.7-1.1c0.1-0.1,0.1-0.2,0.2-0.2
		c0.1-0.1,0.2-0.1,0.3-0.1c0.2,0,0.3,0.1,0.6,0.3c0.2,0.2,0.5,0.4,0.8,0.6c0.3,0.2,0.7,0.4,1.1,0.6c0.4,0.2,1,0.3,1.6,0.3
		c0.5,0,1-0.1,1.4-0.2c0.4-0.1,0.8-0.3,1-0.6c0.3-0.3,0.5-0.6,0.6-0.9c0.1-0.4,0.2-0.8,0.2-1.2c0-0.5-0.1-0.9-0.3-1.2
		c-0.2-0.3-0.5-0.6-0.9-0.8c-0.4-0.2-0.8-0.4-1.3-0.5c-0.5-0.1-1-0.3-1.4-0.5c-0.5-0.2-1-0.3-1.4-0.5c-0.5-0.2-0.9-0.5-1.3-0.8
		c-0.4-0.3-0.7-0.8-0.9-1.3c-0.2-0.5-0.3-1.1-0.3-1.9c0-0.6,0.1-1.2,0.3-1.7c0.2-0.6,0.6-1,1-1.5c0.4-0.4,1-0.8,1.6-1
		c0.6-0.3,1.4-0.4,2.2-0.4c0.9,0,1.8,0.1,2.6,0.4c0.8,0.3,1.4,0.7,2,1.3L45.2,170.7z"/>
	<path class="st0" d="M73.3,168.1v1.9h-7.9v5.3h6.3v1.9h-6.3v5.5h7.9l0,1.9H63.1v-16.6H73.3z"/>
	<path class="st0" d="M101.5,181.1c0.1,0,0.2,0.1,0.3,0.2l0.9,1c-0.7,0.8-1.5,1.4-2.5,1.8c-1,0.4-2.1,0.7-3.5,0.7
		c-1.2,0-2.3-0.2-3.3-0.6c-1-0.4-1.8-1-2.5-1.7c-0.7-0.7-1.2-1.6-1.6-2.7c-0.4-1-0.6-2.2-0.6-3.4s0.2-2.4,0.6-3.4s0.9-1.9,1.7-2.7
		c0.7-0.7,1.6-1.3,2.6-1.7c1-0.4,2.1-0.6,3.3-0.6c1.2,0,2.2,0.2,3.1,0.6c0.9,0.4,1.7,0.9,2.4,1.5l-0.8,1.1c-0.1,0.1-0.1,0.1-0.2,0.2
		c-0.1,0.1-0.2,0.1-0.3,0.1c-0.1,0-0.3-0.1-0.5-0.2c-0.2-0.1-0.5-0.3-0.8-0.5c-0.3-0.2-0.7-0.3-1.2-0.5c-0.5-0.1-1.1-0.2-1.8-0.2
		c-0.8,0-1.6,0.1-2.3,0.4c-0.7,0.3-1.3,0.7-1.8,1.3c-0.5,0.5-0.9,1.2-1.2,2c-0.3,0.8-0.4,1.7-0.4,2.7c0,1,0.1,1.9,0.4,2.7
		c0.3,0.8,0.7,1.5,1.2,2c0.5,0.5,1.1,1,1.8,1.3c0.7,0.3,1.4,0.4,2.2,0.4c0.5,0,0.9,0,1.3-0.1c0.4-0.1,0.7-0.1,1.1-0.3
		c0.3-0.1,0.6-0.3,0.9-0.5c0.3-0.2,0.6-0.4,0.9-0.7c0.1-0.1,0.1-0.1,0.2-0.1C101.3,181.1,101.4,181.1,101.5,181.1z"/>
	<path class="st0" d="M125.6,182.7c0.7,0,1.3-0.1,1.8-0.3s1-0.5,1.3-1c0.4-0.4,0.6-0.9,0.8-1.5c0.2-0.6,0.3-1.2,0.3-1.9v-10h2.4v10
		c0,1-0.2,1.9-0.5,2.7c-0.3,0.8-0.7,1.5-1.3,2.1c-0.6,0.6-1.3,1.1-2.1,1.4c-0.8,0.3-1.7,0.5-2.8,0.5c-1,0-2-0.2-2.8-0.5
		c-0.8-0.3-1.5-0.8-2.1-1.4c-0.6-0.6-1-1.3-1.3-2.1c-0.3-0.8-0.5-1.7-0.5-2.7v-10h2.4v10c0,0.7,0.1,1.3,0.3,1.9
		c0.2,0.6,0.5,1.1,0.8,1.5c0.4,0.4,0.8,0.7,1.3,1C124.3,182.6,124.9,182.7,125.6,182.7z"/>
	<path class="st0" d="M152.4,177.8v6.8H150v-16.6h4.7c1.1,0,2,0.1,2.7,0.3c0.8,0.2,1.4,0.5,1.9,0.9c0.5,0.4,0.9,0.9,1.1,1.5
		c0.2,0.6,0.4,1.2,0.4,1.9c0,0.6-0.1,1.1-0.3,1.6c-0.2,0.5-0.4,1-0.8,1.4c-0.3,0.4-0.8,0.8-1.3,1c-0.5,0.3-1.1,0.5-1.7,0.7
		c0.3,0.2,0.6,0.4,0.8,0.8l4.7,6.5h-2.1c-0.4,0-0.7-0.2-0.9-0.5l-4.2-5.8c-0.1-0.2-0.3-0.3-0.4-0.4c-0.2-0.1-0.4-0.1-0.7-0.1H152.4z
		 M152.4,176.1h2.3c0.6,0,1.2-0.1,1.7-0.2c0.5-0.2,0.9-0.4,1.2-0.7c0.3-0.3,0.6-0.6,0.7-1c0.2-0.4,0.2-0.8,0.2-1.3
		c0-1-0.3-1.7-0.9-2.2c-0.6-0.5-1.6-0.7-2.9-0.7h-2.4V176.1z"/>
	<path class="st0" d="M180.8,184.6h-2.4v-16.6h2.4V184.6z"/>
	<path class="st0" d="M210.1,168.1v2h-5.3v14.6h-2.4v-14.6h-5.3v-2H210.1z"/>
	<path class="st0" d="M232.7,178.1v6.6h-2.4v-6.6l-6.1-10h2.1c0.2,0,0.4,0,0.5,0.1c0.1,0.1,0.2,0.2,0.3,0.4l3.7,6.3
		c0.1,0.3,0.3,0.6,0.4,0.8c0.1,0.2,0.2,0.5,0.3,0.7c0.1-0.2,0.2-0.5,0.3-0.7c0.1-0.2,0.2-0.5,0.4-0.8l3.6-6.3
		c0.1-0.1,0.2-0.3,0.3-0.4c0.1-0.1,0.3-0.2,0.5-0.2h2.1L232.7,178.1z"/>
	<path class="st0" d="M284.3,184.4c-0.9,0.3-2,0.4-3.1,0.4c-1.3,0-2.5-0.2-3.6-0.6c-1.1-0.4-2-1-2.8-1.7c-0.8-0.7-1.3-1.6-1.8-2.7
		c-0.4-1-0.6-2.2-0.6-3.4c0-1.3,0.2-2.4,0.6-3.4c0.4-1,1-1.9,1.7-2.7c0.7-0.7,1.6-1.3,2.7-1.7c1-0.4,2.2-0.6,3.5-0.6
		c0.7,0,1.3,0,1.8,0.2c0.6,0.1,1.1,0.2,1.6,0.4c0.5,0.2,0.9,0.4,1.3,0.7c0.4,0.3,0.8,0.5,1.1,0.9l-0.7,1.1c-0.1,0.2-0.2,0.3-0.4,0.3
		c-0.2,0-0.4,0-0.6-0.1c-0.2-0.1-0.4-0.2-0.7-0.4c-0.2-0.2-0.5-0.3-0.9-0.4c-0.3-0.1-0.7-0.2-1.2-0.3c-0.5-0.1-1-0.1-1.6-0.1
		c-0.9,0-1.7,0.1-2.5,0.5c-0.7,0.3-1.4,0.7-1.9,1.3c-0.5,0.6-0.9,1.2-1.2,2c-0.3,0.8-0.4,1.7-0.4,2.6c0,1,0.1,2,0.4,2.8
		c0.3,0.8,0.7,1.5,1.3,2.1c0.5,0.6,1.2,1,2,1.3c0.8,0.3,1.6,0.4,2.6,0.4c0.4,0,0.7,0,1-0.1c0.3,0,0.6-0.1,0.9-0.2
		c0.3-0.1,0.6-0.2,0.9-0.3c0.3-0.1,0.6-0.2,0.8-0.4v-3.5h-2.5c-0.2,0-0.3,0-0.4-0.1c-0.1-0.1-0.1-0.2-0.1-0.3v-1.4h5.2v6.4
		C286.1,183.6,285.2,184.1,284.3,184.4z"/>
	<path class="st0" d="M306.5,177.8v6.8h-2.4v-16.6h4.7c1.1,0,2,0.1,2.7,0.3c0.8,0.2,1.4,0.5,1.9,0.9c0.5,0.4,0.9,0.9,1.1,1.5
		c0.2,0.6,0.4,1.2,0.4,1.9c0,0.6-0.1,1.1-0.3,1.6c-0.2,0.5-0.4,1-0.8,1.4c-0.3,0.4-0.8,0.8-1.3,1c-0.5,0.3-1.1,0.5-1.7,0.7
		c0.3,0.2,0.6,0.4,0.8,0.8l4.7,6.5h-2.1c-0.4,0-0.7-0.2-0.9-0.5l-4.2-5.8c-0.1-0.2-0.3-0.3-0.4-0.4s-0.4-0.1-0.7-0.1H306.5z
		 M306.5,176.1h2.3c0.6,0,1.2-0.1,1.7-0.2c0.5-0.2,0.9-0.4,1.2-0.7s0.6-0.6,0.7-1c0.2-0.4,0.2-0.8,0.2-1.3c0-1-0.3-1.7-0.9-2.2
		c-0.6-0.5-1.6-0.7-2.9-0.7h-2.4V176.1z"/>
	<path class="st0" d="M347.7,176.3c0,1.2-0.2,2.4-0.6,3.4c-0.4,1-1,1.9-1.7,2.7c-0.7,0.7-1.6,1.3-2.6,1.7c-1,0.4-2.1,0.6-3.3,0.6
		c-1.2,0-2.3-0.2-3.3-0.6c-1-0.4-1.9-1-2.6-1.7c-0.7-0.7-1.3-1.6-1.7-2.7c-0.4-1-0.6-2.2-0.6-3.4c0-1.2,0.2-2.4,0.6-3.4
		c0.4-1,1-1.9,1.7-2.7c0.7-0.7,1.6-1.3,2.6-1.7c1-0.4,2.1-0.6,3.3-0.6c1.2,0,2.3,0.2,3.3,0.6c1,0.4,1.9,1,2.6,1.7
		c0.7,0.7,1.3,1.6,1.7,2.7C347.5,174,347.7,175.1,347.7,176.3z M345.3,176.3c0-1-0.1-1.9-0.4-2.7c-0.3-0.8-0.7-1.5-1.2-2
		c-0.5-0.5-1.1-1-1.8-1.3c-0.7-0.3-1.5-0.4-2.4-0.4c-0.9,0-1.7,0.1-2.4,0.4c-0.7,0.3-1.3,0.7-1.8,1.3c-0.5,0.6-0.9,1.2-1.2,2
		c-0.3,0.8-0.4,1.7-0.4,2.7c0,1,0.1,1.9,0.4,2.7c0.3,0.8,0.7,1.5,1.2,2c0.5,0.5,1.1,1,1.8,1.3c0.7,0.3,1.5,0.4,2.4,0.4
		c0.9,0,1.7-0.1,2.4-0.4c0.7-0.3,1.3-0.7,1.8-1.3c0.5-0.5,0.9-1.2,1.2-2C345.2,178.2,345.3,177.3,345.3,176.3z"/>
	<path class="st0" d="M371.2,182.7c0.7,0,1.3-0.1,1.8-0.3c0.5-0.2,1-0.5,1.3-1c0.4-0.4,0.6-0.9,0.8-1.5c0.2-0.6,0.3-1.2,0.3-1.9v-10
		h2.4v10c0,1-0.2,1.9-0.5,2.7c-0.3,0.8-0.7,1.5-1.3,2.1c-0.6,0.6-1.3,1.1-2.1,1.4c-0.8,0.3-1.7,0.5-2.8,0.5c-1,0-2-0.2-2.8-0.5
		c-0.8-0.3-1.5-0.8-2.1-1.4c-0.6-0.6-1-1.3-1.3-2.1c-0.3-0.8-0.5-1.7-0.5-2.7v-10h2.4v10c0,0.7,0.1,1.3,0.3,1.9
		c0.2,0.6,0.5,1.1,0.8,1.5c0.4,0.4,0.8,0.7,1.3,1C369.9,182.6,370.5,182.7,371.2,182.7z"/>
	<path class="st0" d="M398,178.5v6.1h-2.4v-16.6h5c1.1,0,2,0.1,2.8,0.4c0.8,0.2,1.4,0.6,1.9,1s0.9,1,1.1,1.6
		c0.3,0.6,0.4,1.3,0.4,2.1c0,0.8-0.1,1.5-0.4,2.1c-0.3,0.6-0.7,1.2-1.2,1.7c-0.5,0.5-1.2,0.8-1.9,1.1c-0.8,0.3-1.7,0.4-2.7,0.4H398z
		 M398,176.6h2.6c0.6,0,1.2-0.1,1.7-0.2c0.5-0.2,0.9-0.4,1.2-0.7c0.3-0.3,0.6-0.7,0.7-1.1c0.2-0.4,0.2-0.9,0.2-1.4
		c0-0.5-0.1-1-0.2-1.4c-0.2-0.4-0.4-0.7-0.7-1c-0.3-0.3-0.7-0.5-1.2-0.7c-0.5-0.2-1-0.2-1.7-0.2H398V176.6z"/>
</g>
<polygon class="st0" points="84.3,140 134.1,51.5 122,30 60,140 "/>
<polygon class="st0" points="96.6,34.2 79.8,3.7 3,140 37,140 "/>
<path class="st1" d="M193.3,119.1c0,1.9-0.3,3.7-0.8,5.3c-0.5,1.6-1.3,2.9-2.3,4c-1,1.1-2.2,2-3.7,2.6c-1.4,0.6-3.1,0.9-4.9,0.9
	c-1.8,0-3.5-0.3-4.9-0.9c-1.4-0.6-2.7-1.5-3.6-2.6c-1-1.1-1.7-2.5-2.3-4c-0.5-1.6-0.8-3.3-0.8-5.3V88.7h-9.4v30.4
	c0,3,0.5,5.8,1.5,8.4c1,2.6,2.4,4.8,4.2,6.6c1.8,1.9,4,3.3,6.6,4.4c2.6,1,5.5,1.6,8.8,1.6c3.3,0,6.2-0.5,8.8-1.6
	c2.6-1,4.8-2.5,6.6-4.4c1.8-1.9,3.2-4.1,4.2-6.6c1-2.6,1.5-5.4,1.5-8.4V88.7h-9.4V119.1z"/>
<path class="st1" d="M267.5,88.7c-0.3,0-0.6,0.1-0.8,0.2s-0.5,0.2-0.7,0.5c-0.2,0.2-0.4,0.5-0.6,0.8l-15,28.1
	c-0.4,0.7-0.8,1.5-1.1,2.4c-0.4,0.8-0.7,1.7-1,2.5c-0.3-0.8-0.7-1.6-1-2.4c-0.3-0.8-0.7-1.6-1.1-2.3l-15.2-28.2
	c-0.2-0.4-0.4-0.6-0.6-0.8c-0.2-0.2-0.4-0.4-0.7-0.5c-0.2-0.1-0.5-0.2-0.8-0.2c-0.3,0-0.7,0-1.1,0h-7.1v50.8h8.3v-32.8
	c0-0.6,0-1.3-0.1-2.1c0-0.7-0.1-1.5-0.2-2.3l15.6,28.9c0.4,0.7,0.8,1.2,1.4,1.5c0.6,0.4,1.2,0.5,2,0.5h1.3c0.7,0,1.4-0.2,2-0.5
	c0.6-0.4,1-0.9,1.4-1.5l15.3-28.8c-0.1,0.7-0.1,1.5-0.2,2.2c0,0.7-0.1,1.4-0.1,2v32.8h8.3V88.7h-7.1
	C268.1,88.7,267.8,88.7,267.5,88.7z"/>
<path class="st1" d="M341,88.7c-0.3,0-0.6,0.1-0.8,0.2s-0.5,0.2-0.7,0.5c-0.2,0.2-0.4,0.5-0.6,0.8l-15,28.1
	c-0.4,0.7-0.8,1.5-1.1,2.4c-0.4,0.8-0.7,1.7-1,2.5c-0.3-0.8-0.7-1.6-1-2.4c-0.3-0.8-0.7-1.6-1.1-2.3l-15.2-28.2
	c-0.2-0.4-0.4-0.6-0.6-0.8s-0.4-0.4-0.7-0.5c-0.2-0.1-0.5-0.2-0.8-0.2c-0.3,0-0.7,0-1.1,0h-7.1v50.8h8.3v-32.8c0-0.6,0-1.3-0.1-2.1
	c0-0.7-0.1-1.5-0.2-2.3l15.6,28.9c0.4,0.7,0.8,1.2,1.4,1.5s1.2,0.5,2,0.5h1.3c0.7,0,1.4-0.2,2-0.5s1-0.9,1.4-1.5l15.3-28.8
	c-0.1,0.7-0.1,1.5-0.2,2.2c0,0.7-0.1,1.4-0.1,2v32.8h8.3V88.7h-7.1C341.7,88.7,341.3,88.7,341,88.7z"/>
<rect x="368" y="103.2" class="st0" width="8.7" height="36"/>
<path class="st0" d="M376.3,81.2c-0.5-0.5-1.1-0.9-1.8-1.2c-0.7-0.3-1.4-0.4-2.2-0.4c-0.7,0-1.5,0.1-2.1,0.4
	c-0.7,0.3-1.2,0.7-1.7,1.2c-0.5,0.5-0.9,1.1-1.2,1.8c-0.3,0.7-0.4,1.4-0.4,2.2c0,0.7,0.1,1.5,0.4,2.1c0.3,0.7,0.7,1.2,1.2,1.7
	c0.5,0.5,1.1,0.9,1.7,1.2c0.7,0.3,1.4,0.4,2.1,0.4c0.8,0,1.5-0.1,2.2-0.4c0.7-0.3,1.3-0.7,1.8-1.2c0.5-0.5,0.9-1.1,1.2-1.7
	c0.3-0.7,0.5-1.4,0.5-2.1c0-0.8-0.2-1.5-0.5-2.2C377.2,82.3,376.8,81.7,376.3,81.2z"/>
<polygon class="st1" points="425.7,88.7 390.6,88.7 390.6,96.4 406,96.4 406,139.5 415.4,139.5 415.4,96.4 430.1,96.4 "/>
<path class="st1" d="M142.2,114.4c-1.1-1-2.4-1.9-3.8-2.5c-1.4-0.7-2.8-1.3-4.3-1.8c-1.5-0.5-2.9-1-4.3-1.4
	c-1.4-0.4-2.7-0.9-3.8-1.5c-1.1-0.5-1.9-1.2-2.6-2l-4.8,8.5c0.7,0.5,1.5,1,2.3,1.3c1.4,0.7,2.8,1.2,4.3,1.7c1.5,0.5,2.9,0.9,4.3,1.3
	c1.4,0.4,2.7,0.9,3.8,1.5c1.1,0.6,2,1.3,2.7,2.1c0.7,0.8,1,1.9,1,3.3c0,2.4-0.7,4.2-2.2,5.5c-1.5,1.3-3.6,1.9-6.3,1.9
	c-1.8,0-3.3-0.2-4.5-0.7c-1.3-0.5-2.3-1-3.3-1.6c-0.9-0.6-1.7-1.1-2.4-1.6c-0.7-0.5-1.3-0.7-1.9-0.7c-0.4,0-0.9,0.1-1.2,0.3
	s-0.7,0.5-0.9,0.8l-2.7,4.5c1,1,2.1,1.9,3.4,2.7c1.3,0.8,2.6,1.5,4,2.1c1.4,0.6,2.9,1,4.5,1.4c1.6,0.3,3.2,0.5,4.8,0.5
	c2.8,0,5.3-0.4,7.5-1.3c2.2-0.9,4-2,5.5-3.5c1.5-1.5,2.7-3.2,3.4-5.2c0.8-2,1.2-4.1,1.2-6.4c0-2.1-0.3-3.9-1-5.4
	C144.1,116.7,143.3,115.4,142.2,114.4z"/>
<path class="st1" d="M134,96.3c1.1,0.4,2,0.8,2.8,1.2c0.8,0.4,1.5,0.8,2.1,1.2c0.6,0.4,1.1,0.5,1.6,0.5s0.9-0.1,1.2-0.3
	c0.3-0.2,0.6-0.6,0.9-1.1l2.3-4.5c-1.8-1.7-3.9-3-6.5-3.9c-1.7-0.6-3.5-1-5.4-1.2l-4.3,7.6c0.5-0.1,1-0.1,1.5-0.1
	C131.7,95.8,133,96,134,96.3z"/>
</svg>
