<svg xmlns="http://www.w3.org/2000/svg" viewBox="0 0 143.1 24.86"><defs><style>.cls-1{fill:#00355f;}.cls-2{fill:#818181;}</style></defs><title>recolored logo</title><g id="Layer_2" data-name="Layer 2"><g id="Your_Design" data-name="Your Design"><polygon class="cls-1" points="43.5 16.95 43.5 16.95 40.2 16.95 40.2 1.35 43.5 0.15 43.5 16.95"/><path class="cls-1" d="M48.9,11.56a4.55,4.55,0,0,0,.8,2.7,2.84,2.84,0,0,0,2.3,1.1,2.68,2.68,0,0,0,2.9-1.9l3.1.4c-1,2.3-3,3.5-6,3.5a6.8,6.8,0,0,1-4.8-1.6,5.51,5.51,0,0,1-1.8-4.3,6,6,0,0,1,1.7-4.4,6.43,6.43,0,0,1,4.7-1.7A6.14,6.14,0,0,1,56.4,7a5.8,5.8,0,0,1,1.7,4.3v.4l-9.2-.1Zm6.2-1.5a2.52,2.52,0,0,0-.9-2,3.14,3.14,0,0,0-4.4,0,2.71,2.71,0,0,0-.8,2Z"/><polygon class="cls-1" points="61.9 5.66 65.2 12.76 68.2 5.66 71.8 5.66 66 17.16 64.1 17.16 58.3 5.66 61.9 5.66"/><rect class="cls-1" x="73.7" y="5.66" width="3.2" height="11.2"/><path class="cls-1" d="M75.3,3.36A1.5,1.5,0,0,0,76.4,3a1.38,1.38,0,0,0,.5-.9,1.05,1.05,0,0,0-.5-.9,1.71,1.71,0,0,0-2.2,0,1.38,1.38,0,0,0-.5.9,1.05,1.05,0,0,0,.5.9,2.1,2.1,0,0,0,1.1.4"/><path class="cls-1" d="M92,17H88.8V16a6.6,6.6,0,0,1-8.6-.4,6.13,6.13,0,0,1-1.7-4.3,6.07,6.07,0,0,1,1.7-4.2,6,6,0,0,1,4.3-1.7,5.74,5.74,0,0,1,4.2,1.4V5.66h3.2L92,17Zm-2.8-5.7a3.54,3.54,0,0,0-1-2.6,3.62,3.62,0,0,0-2.7-1,3.25,3.25,0,0,0-2.6,1,3.39,3.39,0,0,0-1,2.6,3.25,3.25,0,0,0,1,2.6,3.62,3.62,0,0,0,2.7,1,3.43,3.43,0,0,0,3.6-3.6"/><polygon class="cls-1" points="95.7 16.95 95.7 7.86 93.7 7.86 93.7 5.55 95.7 5.55 95.7 2.96 98.9 1.85 98.9 5.55 101 5.55 101 7.86 98.9 7.86 98.9 16.95 95.7 16.95"/><path class="cls-1" d="M105.6.16v6.4c.8-.9,2.2-1.3,4-1.3a4.22,4.22,0,0,1,3.3,1.4,4.87,4.87,0,0,1,1.2,3.4V17h-3.2v-5.9c0-2.4-.9-3.6-2.6-3.6-1.9,0-2.8,1.3-2.8,3.9V17h-3.2V1.36Z"/><path class="cls-1" d="M128.8,17h-3.2V16a6.6,6.6,0,0,1-8.6-.4,6.13,6.13,0,0,1-1.7-4.3,6.07,6.07,0,0,1,1.7-4.2,6,6,0,0,1,4.3-1.7,5.74,5.74,0,0,1,4.2,1.4V5.66h3.2l.1,11.3Zm-2.8-5.7a3.54,3.54,0,0,0-1-2.6,3.62,3.62,0,0,0-2.7-1,3.25,3.25,0,0,0-2.6,1,3.8,3.8,0,0,0-1,2.6,3.25,3.25,0,0,0,1,2.6,3.62,3.62,0,0,0,2.7,1,3.43,3.43,0,0,0,3.6-3.6"/><path class="cls-1" d="M134.5,6.66a5.55,5.55,0,0,1,4-1.4q4.5,0,4.5,4.8V17h-3.2v-5.9c0-2.4-.9-3.6-2.6-3.6-1.9,0-2.8,1.3-2.8,3.8V17h-3.2V5.66h3.2v1Z"/><path class="cls-2" d="M110.2,23.06c0,1.2-.6,1.8-1.9,1.8a2.12,2.12,0,0,1-1.4-.4,1.22,1.22,0,0,1-.6-1h1c0,.2.1.3.3.5a.84.84,0,0,0,.7.2.9.9,0,0,0,1-1V23a1.7,1.7,0,0,1-1.3.4,1.73,1.73,0,0,1-1.3-.5,1.66,1.66,0,0,1-.5-1.2,1.9,1.9,0,0,1,.5-1.3,1.54,1.54,0,0,1,1.3-.5,1.46,1.46,0,0,1,1.2.4V20h1v3.1Zm-.8-1.5a1.1,1.1,0,1,0-2.2,0c0,.7.4,1,1.1,1a1.14,1.14,0,0,0,.8-.3.78.78,0,0,0,.3-.7"/><path class="cls-2" d="M116,20.26a1.5,1.5,0,0,1,1.2-.5.9.9,0,0,1,.5.1l-.1.8a.75.75,0,0,0-.5-.1c-.7,0-1,.4-1,1.3v1.5h-1V20h1C116,20,116,20.26,116,20.26Z"/><path class="cls-2" d="M126,21.66a1.61,1.61,0,0,1-.6,1.3,2.5,2.5,0,0,1-3,0,1.71,1.71,0,0,1,0-2.6,2.5,2.5,0,0,1,3,0,1.49,1.49,0,0,1,.6,1.3m-3.2,0a1,1,0,1,0,.3-.8,1.14,1.14,0,0,0-.3.8"/><path class="cls-2" d="M131.6,20v1.8c0,.7.3,1,.8,1s.8-.3.8-1V20h1v2q0,1.5-1.8,1.5T130.6,22V20Z"/><path class="cls-2" d="M140,20.26a1.7,1.7,0,0,1,1.3-.4,1.9,1.9,0,0,1,1.3.5,2.11,2.11,0,0,1,.5,1.3,1.71,1.71,0,0,1-1.8,1.8c-.6,0-1-.1-1.2-.4v1.8h-1v-4.8h1v.2Zm2.1,1.4a1.33,1.33,0,0,0-.3-.8,1.1,1.1,0,0,0-1.9.8,1.33,1.33,0,0,0,.3.8,1.22,1.22,0,0,0,1.6,0,1.33,1.33,0,0,0,.3-.8"/><path class="cls-2" d="M42.6,20.66a.91.91,0,0,0-.7-.3c-.4,0-.5.1-.5.4s.2.3.5.4a3.83,3.83,0,0,1,1.1.5,1.07,1.07,0,0,1,.2.6,1.27,1.27,0,0,1-.4.9,2,2,0,0,1-1.1.3,1.82,1.82,0,0,1-1.4-.6l.4-.5a1.22,1.22,0,0,0,.9.4c.4,0,.6-.2.6-.5s-.1-.3-.3-.4-.4-.1-.5-.2c-.6-.2-.9-.5-.9-.8a1.14,1.14,0,0,1,.3-.8,1.22,1.22,0,0,1,.9-.3,1.84,1.84,0,0,1,1.3.4Z"/><path class="cls-2" d="M48.6,21.66a1.14,1.14,0,0,0,.3.8.91.91,0,0,0,.7.3.8.8,0,0,0,.9-.6l.9.1a1.8,1.8,0,0,1-1.8,1.1,2.46,2.46,0,0,1-1.5-.5,1.54,1.54,0,0,1-.5-1.3,1.73,1.73,0,0,1,.5-1.3,2.21,2.21,0,0,1,2.8,0,1.9,1.9,0,0,1,.5,1.3v.1Zm1.9-.4a.86.86,0,0,0-.3-.6,1,1,0,0,0-1.4,0,.86.86,0,0,0-.3.6Z"/><path class="cls-2" d="M58.7,20.76a1.33,1.33,0,0,0-.8-.3,1.22,1.22,0,0,0-.9.3,1.14,1.14,0,0,0-.3.8.91.91,0,0,0,.4.8,1.22,1.22,0,0,0,.9.3,1.14,1.14,0,0,0,.8-.3v.9a3,3,0,0,1-1,.2,2,2,0,0,1-1.4-.5,1.71,1.71,0,0,1,0-2.6,2,2,0,0,1,1.5-.5,2,2,0,0,1,.9.2l-.1.7Z"/><path class="cls-2" d="M64.4,20v1.8c0,.7.3,1,.8,1s.8-.3.8-1V20h1v2q0,1.5-1.8,1.5T63.4,22V20Z"/><path class="cls-2" d="M72.9,20.26a1.5,1.5,0,0,1,1.2-.5.9.9,0,0,1,.5.1l-.1.8a.75.75,0,0,0-.5-.1c-.7,0-1,.4-1,1.3v1.5H72V20h1l-.1.3Z"/><polyline class="cls-2" points="86.3 18.75 86.3 19.95 87 19.95 87 20.66 86.3 20.66 86.3 23.36 85.3 23.36 85.3 20.66 84.8 20.66 84.8 19.95 85.3 19.95 85.3 18.75"/><polygon class="cls-2" points="94.1 19.95 95.3 19.95 92.4 24.75 91.3 24.75 92.6 22.75 90.9 19.95 92 19.95 93 21.95 94.1 19.95"/><rect class="cls-2" x="79.1" y="19.86" width="1" height="3.4"/><path class="cls-2" d="M79.5,19.16a.35.35,0,1,0-.3-.1.37.37,0,0,0,.3.1"/><path class="cls-2" d="M23.6,10.36a17.38,17.38,0,0,1-4.2,3.8,7.79,7.79,0,0,0,1.8-2.3c.8-1.5.5-2,.5-2s-1.2-.7-6.1-1.6a26.82,26.82,0,0,0-7.5-.2s.5,2.4,3.5,6a29.29,29.29,0,0,0,6.4,5.8,39.11,39.11,0,0,0,7.8-7.5c3.8-4.8,3.7-8,3.7-8a33.62,33.62,0,0,0-10.2-2.1,149.13,149.13,0,0,0-16,0,142.06,142.06,0,0,1,18-2.2,57.79,57.79,0,0,1,16,1.5s-.6,4.2-6.9,11.7S18,23.16,18,23.16a54.43,54.43,0,0,1-11.3-8.9C1.5,8.86,0,5.76,0,5.76a89.28,89.28,0,0,1,13.8-.6,70.54,70.54,0,0,1,11.6,1.5,9.66,9.66,0,0,1-1.8,3.7"/><path class="cls-2" d="M23.6,10.36a17.38,17.38,0,0,1-4.2,3.8,7.79,7.79,0,0,0,1.8-2.3c.8-1.5.5-2,.5-2s-1.2-.7-6.1-1.6a26.82,26.82,0,0,0-7.5-.2s.5,2.4,3.5,6a29.29,29.29,0,0,0,6.4,5.8,39.11,39.11,0,0,0,7.8-7.5c3.8-4.8,3.7-8,3.7-8a33.62,33.62,0,0,0-10.2-2.1,149.13,149.13,0,0,0-16,0,142.06,142.06,0,0,1,18-2.2,57.79,57.79,0,0,1,16,1.5s-.6,4.2-6.9,11.7S18,23.16,18,23.16a54.43,54.43,0,0,1-11.3-8.9C1.5,8.86,0,5.76,0,5.76a89.28,89.28,0,0,1,13.8-.6,70.54,70.54,0,0,1,11.6,1.5,9.66,9.66,0,0,1-1.8,3.7"/></g></g></svg>